# This file uses centimeters as units for non-parametric coordinates.

mtllib tunnel.mtl
g default
v -5.153561 -0.518854 5.000000
v -5.153561 9.481146 5.000000
v -6.153561 -0.518854 5.000000
v -6.153561 9.481146 5.000000
v -6.153561 -0.518854 -5.000000
v -6.153561 9.481146 -5.000000
v -5.153561 -0.518854 -5.000000
v -5.153561 9.481146 -5.000000
v 5.995009 -0.518854 5.000000
v 5.995009 9.481146 5.000000
v 4.995009 -0.518854 5.000000
v 4.995009 9.481146 5.000000
v 4.995009 -0.518854 -5.000000
v 4.995009 9.481146 -5.000000
v 5.995009 -0.518854 -5.000000
v 5.995009 9.481146 -5.000000
v -5.961099 11.253638 5.000000
v -4.988103 11.090514 5.000000
v -4.988103 11.090514 -5.000000
v -5.961099 11.253638 -5.000000
v -4.862648 12.909576 5.000000
v -4.136371 12.258463 5.000000
v -4.136371 12.258463 -5.000000
v -4.862648 12.909576 -5.000000
v -2.745800 13.979948 5.000000
v -2.424981 13.045733 5.000000
v -2.424981 13.045733 -5.000000
v -2.745800 13.979948 -5.000000
v -0.079275 14.331949 5.000000
v -0.079275 13.340164 5.000000
v -0.079275 13.340164 -5.000000
v -0.079275 14.331949 -5.000000
v 2.587249 13.979948 5.000000
v 2.266430 13.045732 5.000000
v 2.266430 13.045732 -5.000000
v 2.587249 13.979948 -5.000000
v 4.704097 12.909576 5.000000
v 3.977820 12.258463 5.000000
v 3.977820 12.258463 -5.000000
v 4.704097 12.909576 -5.000000
v 5.802548 11.253637 5.000000
v 4.829552 11.090514 5.000000
v 4.829552 11.090514 -5.000000
v 5.802548 11.253637 -5.000000
vt 0.375000 0.000000
vt 0.625000 0.000000
vt 0.625000 0.250000
vt 0.375000 0.250000
vt 0.625000 0.500000
vt 0.375000 0.500000
vt 0.625000 0.750000
vt 0.375000 0.750000
vt 0.625000 1.000000
vt 0.375000 1.000000
vt 0.125000 0.000000
vt 0.125000 0.250000
vt 0.375000 0.000000
vt 0.625000 0.000000
vt 0.625000 0.250000
vt 0.375000 0.250000
vt 0.625000 0.500000
vt 0.375000 0.500000
vt 0.625000 0.750000
vt 0.375000 0.750000
vt 0.625000 1.000000
vt 0.375000 1.000000
vt 0.125000 0.000000
vt 0.125000 0.250000
vt 0.625000 0.343750
vt 0.625000 0.218750
vt 0.625000 0.031250
vt 0.625000 0.906250
vt 0.625000 0.718750
vt 0.625000 0.531250
vt 0.625000 0.437500
vt 0.625000 0.187500
vt 0.625000 0.062500
vt 0.625000 0.812500
vt 0.625000 0.687500
vt 0.625000 0.562500
vt 0.625000 0.531250
vt 0.625000 0.156250
vt 0.625000 0.093750
vt 0.625000 0.718750
vt 0.625000 0.656250
vt 0.625000 0.593750
vt 0.625000 0.625000
vt 0.625000 0.125000
vt 0.625000 0.125000
vt 0.625000 0.625000
vt 0.625000 0.625000
vt 0.625000 0.625000
vt 0.625000 0.718750
vt 0.625000 0.093750
vt 0.625000 0.156250
vt 0.625000 0.531250
vt 0.625000 0.593750
vt 0.625000 0.656250
vt 0.625000 0.812500
vt 0.625000 0.062500
vt 0.625000 0.187500
vt 0.625000 0.437500
vt 0.625000 0.562500
vt 0.625000 0.687500
vt 0.625000 0.906250
vt 0.625000 0.031250
vt 0.625000 0.218750
vt 0.625000 0.343750
vt 0.625000 0.531250
vt 0.625000 0.718750
vn 0.000000 0.000000 1.000000
vn 0.000000 0.000000 1.000000
vn 0.000000 0.000000 1.000000
vn 0.000000 0.000000 1.000000
vn -1.000000 0.000000 0.000000
vn -1.000000 0.000000 0.000000
vn -1.000000 0.000000 0.000000
vn -1.000000 0.000000 0.000000
vn 0.000000 0.000000 -1.000000
vn 0.000000 0.000000 -1.000000
vn 0.000000 0.000000 -1.000000
vn 0.000000 0.000000 -1.000000
vn 1.000000 0.000000 0.000000
vn 1.000000 0.000000 0.000000
vn 1.000000 0.000000 0.000000
vn 1.000000 0.000000 0.000000
vn 0.000000 -1.000000 0.000000
vn 0.000000 -1.000000 0.000000
vn 0.000000 -1.000000 0.000000
vn 0.000000 -1.000000 0.000000
vn 0.000000 0.000000 1.000000
vn 0.000000 0.000000 1.000000
vn 0.000000 0.000000 1.000000
vn 0.000000 0.000000 1.000000
vn -1.000000 0.000000 0.000000
vn -1.000000 0.000000 0.000000
vn -1.000000 0.000000 0.000000
vn -1.000000 0.000000 0.000000
vn 0.000000 0.000000 -1.000000
vn 0.000000 0.000000 -1.000000
vn 0.000000 0.000000 -1.000000
vn 0.000000 0.000000 -1.000000
vn 1.000000 0.000000 0.000000
vn 1.000000 0.000000 0.000000
vn 1.000000 0.000000 0.000000
vn 1.000000 0.000000 0.000000
vn 0.000000 -1.000000 0.000000
vn 0.000000 -1.000000 0.000000
vn 0.000000 -1.000000 0.000000
vn 0.000000 -1.000000 0.000000
vn 0.000000 0.000000 1.000000
vn 0.000000 0.000000 1.000000
vn 0.000000 0.000000 1.000000
vn 0.000000 0.000000 1.000000
vn -0.939003 -0.343909 0.000000
vn -0.939003 -0.343909 0.000000
vn -0.994757 -0.102270 0.000000
vn -0.994757 -0.102270 0.000000
vn 0.000000 0.000000 -1.000000
vn 0.000000 0.000000 -1.000000
vn 0.000000 0.000000 -1.000000
vn 0.000000 0.000000 -1.000000
vn 0.935857 0.352380 0.000000
vn 0.935857 0.352380 0.000000
vn 0.994157 0.107948 0.000000
vn 0.994157 0.107948 0.000000
vn 0.000000 0.000000 1.000000
vn 0.000000 0.000000 1.000000
vn 0.000000 0.000000 1.000000
vn 0.000000 0.000000 1.000000
vn 0.994757 -0.102270 0.000000
vn 0.994757 -0.102270 0.000000
vn 0.939003 -0.343909 0.000000
vn 0.939003 -0.343909 0.000000
vn 0.000000 0.000000 -1.000000
vn 0.000000 0.000000 -1.000000
vn 0.000000 0.000000 -1.000000
vn 0.000000 0.000000 -1.000000
vn -0.994157 0.107948 0.000000
vn -0.994157 0.107948 0.000000
vn -0.935857 0.352380 0.000000
vn -0.935857 0.352380 0.000000
vn 0.000000 0.000000 1.000000
vn 0.000000 0.000000 1.000000
vn 0.606507 -0.795078 0.000000
vn 0.606507 -0.795078 0.000000
vn 0.000000 0.000000 -1.000000
vn 0.000000 0.000000 -1.000000
vn -0.646726 0.762722 0.000000
vn -0.646726 0.762722 0.000000
vn 0.000000 0.000000 1.000000
vn 0.000000 0.000000 1.000000
vn 0.257620 -0.966246 0.000000
vn 0.257620 -0.966246 0.000000
vn 0.000000 0.000000 -1.000000
vn 0.000000 0.000000 -1.000000
vn -0.285024 0.958521 0.000000
vn -0.285024 0.958521 0.000000
vn 0.000000 0.000000 1.000000
vn 0.000000 0.000000 1.000000
vn -0.000000 -1.000000 0.000000
vn -0.000000 -1.000000 0.000000
vn 0.000000 0.000000 -1.000000
vn 0.000000 0.000000 -1.000000
vn -0.000000 1.000000 0.000000
vn -0.000000 1.000000 0.000000
vn 0.000000 0.000000 1.000000
vn 0.000000 0.000000 1.000000
vn -0.257620 -0.966246 0.000000
vn -0.257620 -0.966246 0.000000
vn 0.000000 0.000000 -1.000000
vn 0.000000 0.000000 -1.000000
vn 0.285024 0.958521 0.000000
vn 0.285024 0.958521 0.000000
vn 0.000000 0.000000 1.000000
vn 0.000000 0.000000 1.000000
vn -0.606507 -0.795078 0.000000
vn -0.606507 -0.795078 0.000000
vn 0.000000 0.000000 -1.000000
vn 0.000000 0.000000 -1.000000
vn 0.646726 0.762722 0.000000
vn 0.646726 0.762722 0.000000
s off
g pCube6
usemtl initialShadingGroup
f 1/1/1 2/2/2 4/3/3 3/4/4
f 3/4/5 4/3/6 6/5/7 5/6/8
f 5/6/9 6/5/10 8/7/11 7/8/12
f 7/8/13 8/7/14 2/9/15 1/10/16
f 7/11/17 1/1/18 3/4/19 5/12/20
f 9/13/21 10/14/22 12/15/23 11/16/24
f 11/16/25 12/15/26 14/17/27 13/18/28
f 13/18/29 14/17/30 16/19/31 15/20/32
f 15/20/33 16/19/34 10/21/35 9/22/36
f 15/23/37 9/13/38 11/16/39 13/24/40
s 1
f 41/62/41 42/63/42 12/15/43 10/14/44
s 2
f 42/64/45 43/65/46 14/17/47 12/15/48
s 3
f 43/65/49 44/66/50 16/19/51 14/17/52
s 4
f 44/66/53 41/61/54 10/21/55 16/19/56
s 1
f 4/3/57 2/2/58 18/27/59 17/26/60
s 2
f 2/9/61 8/7/62 19/29/63 18/28/64
s 3
f 8/7/65 6/5/66 20/30/67 19/29/68
s 4
f 6/5/69 4/3/70 17/25/71 20/30/72
s 1
f 17/26/60 18/27/59 22/33/73 21/32/74
s 2
f 18/28/64 19/29/63 23/35/75 22/34/76
s 3
f 19/29/68 20/30/67 24/36/77 23/35/78
s 4
f 20/30/72 17/25/71 21/31/79 24/36/80
s 1
f 21/32/74 22/33/73 26/39/81 25/38/82
s 2
f 22/34/76 23/35/75 27/41/83 26/40/84
s 3
f 23/35/78 24/36/77 28/42/85 27/41/86
s 4
f 24/36/80 21/31/79 25/37/87 28/42/88
s 1
f 25/38/82 26/39/81 30/45/89 29/44/90
s 2
f 26/40/84 27/41/83 31/47/91 30/46/92
s 3
f 27/41/86 28/42/85 32/48/93 31/47/94
s 4
f 28/42/88 25/37/87 29/43/95 32/48/96
s 1
f 29/44/90 30/45/89 34/51/97 33/50/98
s 2
f 30/46/92 31/47/91 35/53/99 34/52/100
s 3
f 31/47/94 32/48/93 36/54/101 35/53/102
s 4
f 32/48/96 29/43/95 33/49/103 36/54/104
s 1
f 33/50/98 34/51/97 38/57/105 37/56/106
s 2
f 34/52/100 35/53/99 39/59/107 38/58/108
s 3
f 35/53/102 36/54/101 40/60/109 39/59/110
s 4
f 36/54/104 33/49/103 37/55/111 40/60/112
s 1
f 37/56/106 38/57/105 42/63/42 41/62/41
s 2
f 38/58/108 39/59/107 43/65/46 42/64/45
s 3
f 39/59/110 40/60/109 44/66/50 43/65/49
s 4
f 40/60/112 37/55/111 41/61/54 44/66/53
